<?xml version="1.0" encoding="UTF-8"?><svg xmlns="http://www.w3.org/2000/svg" xmlns:xlink="http://www.w3.org/1999/xlink" width="375pt" zoomAndPan="magnify" viewBox="0 0 375 374.999991" height="374.999991pt" preserveAspectRatio="xMidYMid meet" version="1.2"><defs><clipPath xml:id="clip1" id="clip1"><path d="M 106 76 L 302 76 L 302 253 L 106 253 Z M 106 76 "/></clipPath><clipPath xml:id="clip2" id="clip2"><path d="M 150.171875 75.355469 L 305.25 179.40625 L 224.601562 299.609375 L 69.523438 195.558594 Z M 150.171875 75.355469 "/></clipPath><clipPath xml:id="clip3" id="clip3"><path d="M 150.171875 75.355469 L 305.25 179.40625 L 224.601562 299.609375 L 69.523438 195.558594 Z M 150.171875 75.355469 "/></clipPath></defs><g xml:id="surface1" id="surface1"><path style=" stroke:none;fill-rule:nonzero;fill:rgb(100%,100%,100%);fill-opacity:1;" d="M 187.316406 54.972656 C 185.089844 54.972656 182.863281 55.027344 180.636719 55.132812 C 178.414062 55.238281 176.191406 55.398438 173.976562 55.609375 C 171.757812 55.820312 169.546875 56.085938 167.34375 56.40625 C 165.140625 56.722656 162.945312 57.09375 160.761719 57.515625 C 158.574219 57.9375 156.402344 58.414062 154.242188 58.941406 C 152.082031 59.464844 149.933594 60.042969 147.800781 60.671875 C 145.671875 61.300781 143.554688 61.980469 141.457031 62.710938 C 139.359375 63.441406 137.28125 64.21875 135.226562 65.046875 C 133.167969 65.878906 131.128906 66.753906 129.117188 67.683594 C 127.101562 68.609375 125.113281 69.582031 123.148438 70.601562 C 121.183594 71.625 119.246094 72.691406 117.335938 73.804688 C 115.425781 74.917969 113.542969 76.078125 111.691406 77.28125 C 109.839844 78.484375 108.015625 79.730469 106.226562 81.023438 C 104.4375 82.3125 102.683594 83.644531 100.960938 85.019531 C 99.238281 86.394531 97.550781 87.808594 95.902344 89.265625 C 94.25 90.71875 92.636719 92.210938 91.0625 93.742188 C 89.488281 95.277344 87.953125 96.84375 86.457031 98.449219 C 84.960938 100.054688 83.503906 101.695312 82.089844 103.371094 C 80.679688 105.042969 79.308594 106.75 77.980469 108.492188 C 76.652344 110.230469 75.371094 112.003906 74.132812 113.804688 C 72.894531 115.605469 71.703125 117.433594 70.558594 119.292969 C 69.414062 121.152344 68.316406 123.035156 67.265625 124.945312 C 66.214844 126.855469 65.214844 128.792969 64.261719 130.75 C 63.308594 132.707031 62.40625 134.6875 61.554688 136.691406 C 60.703125 138.691406 59.902344 140.710938 59.148438 142.75 C 58.398438 144.792969 57.699219 146.847656 57.054688 148.921875 C 56.40625 150.992188 55.8125 153.082031 55.273438 155.183594 C 54.730469 157.285156 54.242188 159.398438 53.808594 161.523438 C 53.375 163.648438 52.992188 165.78125 52.664062 167.925781 C 52.339844 170.066406 52.066406 172.214844 51.847656 174.371094 C 51.628906 176.527344 51.464844 178.6875 51.355469 180.851562 C 51.246094 183.015625 51.191406 185.179688 51.191406 187.347656 C 51.191406 189.515625 51.246094 191.679688 51.355469 193.84375 C 51.464844 196.007812 51.628906 198.167969 51.847656 200.324219 C 52.066406 202.476562 52.339844 204.628906 52.664062 206.769531 C 52.992188 208.914062 53.375 211.046875 53.808594 213.171875 C 54.242188 215.296875 54.730469 217.410156 55.273438 219.511719 C 55.8125 221.613281 56.40625 223.699219 57.054688 225.773438 C 57.699219 227.847656 58.398438 229.902344 59.148438 231.941406 C 59.902344 233.984375 60.703125 236.003906 61.554688 238.003906 C 62.40625 240.007812 63.308594 241.988281 64.261719 243.945312 C 65.214844 245.902344 66.214844 247.835938 67.265625 249.75 C 68.316406 251.660156 69.414062 253.542969 70.558594 255.402344 C 71.703125 257.261719 72.894531 259.089844 74.132812 260.890625 C 75.371094 262.691406 76.652344 264.464844 77.980469 266.203125 C 79.308594 267.941406 80.679688 269.652344 82.089844 271.324219 C 83.503906 273 84.960938 274.640625 86.457031 276.246094 C 87.953125 277.851562 89.488281 279.417969 91.0625 280.949219 C 92.636719 282.484375 94.25 283.976562 95.902344 285.429688 C 97.550781 286.886719 99.238281 288.300781 100.960938 289.675781 C 102.683594 291.050781 104.4375 292.382812 106.226562 293.671875 C 108.015625 294.960938 109.839844 296.210938 111.691406 297.414062 C 113.542969 298.617188 115.425781 299.777344 117.335938 300.890625 C 119.246094 302.003906 121.183594 303.070312 123.148438 304.089844 C 125.113281 305.113281 127.101562 306.085938 129.117188 307.011719 C 131.128906 307.9375 133.167969 308.816406 135.226562 309.644531 C 137.28125 310.476562 139.359375 311.253906 141.457031 311.984375 C 143.554688 312.714844 145.671875 313.394531 147.800781 314.023438 C 149.933594 314.652344 152.082031 315.230469 154.242188 315.753906 C 156.402344 316.28125 158.574219 316.757812 160.761719 317.179688 C 162.945312 317.601562 165.140625 317.972656 167.34375 318.289062 C 169.546875 318.609375 171.757812 318.871094 173.976562 319.085938 C 176.191406 319.296875 178.414062 319.457031 180.636719 319.5625 C 182.863281 319.667969 185.089844 319.722656 187.316406 319.722656 C 189.546875 319.722656 191.773438 319.667969 193.996094 319.5625 C 196.222656 319.457031 198.441406 319.296875 200.660156 319.085938 C 202.878906 318.871094 205.085938 318.609375 207.292969 318.289062 C 209.496094 317.972656 211.6875 317.601562 213.875 317.179688 C 216.058594 316.757812 218.230469 316.28125 220.394531 315.753906 C 222.554688 315.230469 224.699219 314.652344 226.832031 314.023438 C 228.964844 313.394531 231.078125 312.714844 233.175781 311.984375 C 235.273438 311.253906 237.351562 310.476562 239.410156 309.644531 C 241.46875 308.816406 243.503906 307.9375 245.519531 307.011719 C 247.53125 306.085938 249.523438 305.113281 251.488281 304.089844 C 253.453125 303.070312 255.390625 302.003906 257.300781 300.890625 C 259.210938 299.773438 261.09375 298.617188 262.945312 297.414062 C 264.796875 296.210938 266.617188 294.960938 268.40625 293.671875 C 270.195312 292.382812 271.953125 291.050781 273.675781 289.675781 C 275.398438 288.300781 277.082031 286.886719 278.734375 285.429688 C 280.382812 283.976562 281.996094 282.484375 283.574219 280.949219 C 285.148438 279.417969 286.683594 277.851562 288.179688 276.246094 C 289.675781 274.640625 291.128906 273 292.542969 271.324219 C 293.957031 269.652344 295.328125 267.941406 296.652344 266.203125 C 297.980469 264.464844 299.265625 262.691406 300.5 260.890625 C 301.738281 259.089844 302.929688 257.261719 304.074219 255.402344 C 305.222656 253.542969 306.320312 251.660156 307.367188 249.75 C 308.417969 247.835938 309.421875 245.902344 310.375 243.945312 C 311.324219 241.988281 312.226562 240.007812 313.082031 238.003906 C 313.933594 236.003906 314.734375 233.984375 315.484375 231.941406 C 316.234375 229.902344 316.933594 227.847656 317.582031 225.773438 C 318.226562 223.699219 318.820312 221.613281 319.363281 219.511719 C 319.90625 217.410156 320.390625 215.296875 320.828125 213.171875 C 321.261719 211.046875 321.640625 208.914062 321.96875 206.769531 C 322.296875 204.628906 322.570312 202.476562 322.789062 200.324219 C 323.003906 198.167969 323.167969 196.007812 323.277344 193.84375 C 323.386719 191.679688 323.441406 189.515625 323.441406 187.347656 C 323.441406 185.179688 323.386719 183.015625 323.277344 180.851562 C 323.167969 178.6875 323.003906 176.527344 322.789062 174.371094 C 322.570312 172.214844 322.296875 170.066406 321.96875 167.925781 C 321.640625 165.78125 321.261719 163.648438 320.828125 161.523438 C 320.390625 159.398438 319.90625 157.285156 319.363281 155.183594 C 318.820312 153.082031 318.226562 150.992188 317.582031 148.921875 C 316.933594 146.847656 316.234375 144.792969 315.484375 142.75 C 314.734375 140.710938 313.933594 138.691406 313.082031 136.691406 C 312.226562 134.6875 311.324219 132.707031 310.375 130.75 C 309.421875 128.792969 308.417969 126.855469 307.367188 124.945312 C 306.320312 123.035156 305.222656 121.152344 304.074219 119.292969 C 302.929688 117.433594 301.738281 115.605469 300.5 113.804688 C 299.261719 112.003906 297.980469 110.230469 296.652344 108.492188 C 295.328125 106.75 293.957031 105.042969 292.542969 103.371094 C 291.128906 101.695312 289.675781 100.054688 288.179688 98.449219 C 286.683594 96.84375 285.148438 95.277344 283.574219 93.742188 C 281.996094 92.210938 280.382812 90.71875 278.734375 89.265625 C 277.082031 87.808594 275.398438 86.394531 273.675781 85.019531 C 271.953125 83.644531 270.195312 82.3125 268.40625 81.023438 C 266.617188 79.730469 264.796875 78.484375 262.945312 77.28125 C 261.09375 76.078125 259.210938 74.917969 257.300781 73.804688 C 255.390625 72.691406 253.453125 71.625 251.488281 70.601562 C 249.523438 69.582031 247.53125 68.609375 245.519531 67.683594 C 243.503906 66.753906 241.46875 65.878906 239.410156 65.046875 C 237.351562 64.21875 235.273438 63.441406 233.175781 62.710938 C 231.078125 61.980469 228.964844 61.300781 226.832031 60.671875 C 224.699219 60.042969 222.554688 59.464844 220.394531 58.941406 C 218.230469 58.414062 216.058594 57.9375 213.875 57.515625 C 211.6875 57.09375 209.496094 56.722656 207.292969 56.40625 C 205.085938 56.085938 202.878906 55.820312 200.660156 55.609375 C 198.441406 55.398438 196.222656 55.238281 193.996094 55.132812 C 191.773438 55.027344 189.546875 54.972656 187.316406 54.972656 Z M 187.316406 54.972656 "/><g clip-rule="nonzero" clip-path="url(#clip1)"><g clip-rule="nonzero" clip-path="url(#clip2)"><g clip-rule="nonzero" clip-path="url(#clip3)"><path style=" stroke:none;fill-rule:nonzero;fill:rgb(38.42926%,64.309692%,16.079712%);fill-opacity:1;" d="M 300.484375 182.328125 C 300.285156 182.078125 300.054688 181.867188 299.789062 181.691406 C 299.523438 181.515625 299.238281 181.382812 298.933594 181.300781 C 298.625 181.214844 298.3125 181.179688 297.996094 181.195312 C 297.675781 181.207031 297.367188 181.273438 297.070312 181.382812 C 290.898438 183.695312 284.59375 185.546875 278.15625 186.9375 C 271.71875 188.328125 265.210938 189.242188 258.640625 189.683594 C 252.070312 190.121094 245.503906 190.082031 238.9375 189.5625 C 232.375 189.042969 225.886719 188.046875 219.46875 186.578125 C 224.9375 185.578125 230.351562 185.8125 235.710938 187.285156 C 236.296875 187.449219 236.878906 187.433594 237.457031 187.242188 C 238.035156 187.050781 238.511719 186.714844 238.886719 186.234375 C 239.261719 185.753906 239.46875 185.210938 239.515625 184.601562 C 239.558594 183.996094 239.429688 183.425781 239.128906 182.898438 L 232.703125 171.5625 C 232.148438 170.582031 231.542969 169.628906 230.890625 168.710938 C 230.238281 167.789062 229.539062 166.90625 228.796875 166.054688 C 228.054688 165.207031 227.269531 164.398438 226.441406 163.628906 C 225.617188 162.863281 224.753906 162.136719 223.855469 161.457031 C 222.953125 160.777344 222.023438 160.144531 221.058594 159.558594 C 220.09375 158.972656 219.101562 158.4375 218.082031 157.953125 C 217.0625 157.46875 216.023438 157.039062 214.960938 156.660156 C 213.894531 156.285156 212.816406 155.960938 211.71875 155.695312 C 210.625 155.425781 209.515625 155.214844 208.398438 155.0625 C 207.28125 154.90625 206.160156 154.808594 205.03125 154.769531 C 203.902344 154.730469 202.773438 154.746094 201.648438 154.820312 C 200.523438 154.898438 199.402344 155.027344 198.289062 155.21875 C 197.175781 155.40625 196.078125 155.652344 194.988281 155.953125 C 193.898438 156.253906 192.828125 156.613281 191.777344 157.023438 C 190.726562 157.433594 189.695312 157.894531 188.691406 158.410156 C 187.6875 158.925781 186.710938 159.492188 185.761719 160.109375 L 176.640625 166.027344 C 174.5 163.394531 172.488281 160.664062 170.609375 157.839844 C 168.730469 155.015625 166.992188 152.105469 165.390625 149.113281 C 163.789062 146.121094 162.335938 143.0625 161.027344 139.929688 C 159.722656 136.796875 158.566406 133.609375 157.5625 130.367188 C 156.558594 127.125 155.714844 123.839844 155.027344 120.515625 C 154.335938 117.195312 153.808594 113.84375 153.441406 110.46875 C 153.070312 107.09375 152.867188 103.707031 152.820312 100.3125 C 152.777344 96.917969 152.894531 93.527344 153.171875 90.140625 L 154.019531 80.167969 C 154.046875 79.835938 154.023438 79.507812 153.941406 79.183594 C 153.859375 78.863281 153.730469 78.558594 153.550781 78.28125 C 153.367188 78 153.148438 77.757812 152.886719 77.554688 C 152.625 77.347656 152.335938 77.191406 152.023438 77.078125 C 151.710938 76.96875 151.386719 76.914062 151.054688 76.910156 C 150.71875 76.90625 150.394531 76.960938 150.078125 77.0625 C 149.765625 77.167969 149.472656 77.324219 149.207031 77.523438 C 148.941406 77.726562 148.71875 77.964844 148.53125 78.242188 L 116.5625 125.890625 C 115.523438 127.441406 114.5625 129.035156 113.679688 130.679688 C 112.792969 132.324219 111.996094 134.007812 111.277344 135.730469 C 110.558594 137.453125 109.925781 139.203125 109.378906 140.988281 C 108.835938 142.773438 108.378906 144.578125 108.007812 146.410156 C 107.640625 148.238281 107.363281 150.078125 107.175781 151.933594 C 106.988281 153.792969 106.890625 155.652344 106.886719 157.515625 C 106.878906 159.382812 106.964844 161.242188 107.144531 163.097656 C 107.320312 164.953125 107.589844 166.796875 107.949219 168.628906 C 108.308594 170.457031 108.753906 172.265625 109.292969 174.050781 C 109.828125 175.835938 110.449219 177.589844 111.160156 179.3125 C 111.867188 181.039062 112.660156 182.722656 113.53125 184.367188 C 114.40625 186.015625 115.359375 187.613281 116.390625 189.164062 C 117.421875 190.714844 118.527344 192.214844 119.707031 193.65625 C 120.882812 195.101562 122.128906 196.480469 123.445312 197.800781 C 124.757812 199.121094 126.136719 200.375 127.574219 201.558594 C 129.011719 202.746094 130.503906 203.855469 132.050781 204.894531 L 137.523438 208.566406 L 118.628906 215.503906 C 118.414062 215.582031 118.210938 215.683594 118.019531 215.808594 C 117.828125 215.933594 117.652344 216.078125 117.492188 216.246094 C 117.335938 216.410156 117.195312 216.589844 117.078125 216.789062 C 116.960938 216.984375 116.867188 217.191406 116.796875 217.410156 C 116.726562 217.628906 116.683594 217.851562 116.664062 218.082031 C 116.644531 218.308594 116.652344 218.535156 116.6875 218.761719 C 116.71875 218.988281 116.777344 219.210938 116.859375 219.421875 C 116.941406 219.636719 117.050781 219.835938 117.179688 220.027344 C 123.46875 229.261719 131.253906 236.988281 140.535156 243.203125 L 149.558594 249.257812 C 149.90625 249.492188 150.289062 249.648438 150.703125 249.722656 C 151.117188 249.796875 151.527344 249.785156 151.9375 249.6875 C 152.347656 249.589844 152.71875 249.414062 153.054688 249.160156 C 153.390625 248.902344 153.664062 248.59375 153.867188 248.222656 L 163.203125 231.460938 C 164.960938 233.152344 166.769531 234.796875 168.65625 236.332031 C 170.429688 237.765625 172.257812 239.113281 174.136719 240.375 C 175.152344 241.054688 176.183594 241.710938 177.230469 242.339844 C 178.28125 242.96875 179.34375 243.570312 180.417969 244.148438 C 181.496094 244.726562 182.589844 245.277344 183.691406 245.800781 C 184.796875 246.324219 185.914062 246.820312 187.042969 247.289062 C 188.171875 247.757812 189.3125 248.199219 190.460938 248.613281 C 191.613281 249.023438 192.773438 249.410156 193.941406 249.765625 C 195.109375 250.121094 196.289062 250.449219 197.472656 250.746094 C 198.660156 251.042969 199.851562 251.3125 201.050781 251.550781 C 202.25 251.792969 203.453125 252 204.664062 252.179688 C 205.871094 252.363281 207.085938 252.511719 208.300781 252.632812 C 209.519531 252.753906 210.738281 252.84375 211.957031 252.90625 C 213.179688 252.964844 214.402344 252.996094 215.625 253 C 216.847656 253 218.070312 252.96875 219.292969 252.910156 C 220.511719 252.851562 221.730469 252.761719 222.949219 252.644531 C 224.167969 252.523438 225.378906 252.375 226.589844 252.195312 C 227.800781 252.019531 229.003906 251.808594 230.207031 251.574219 C 231.40625 251.335938 232.597656 251.066406 233.785156 250.773438 C 234.972656 250.476562 236.152344 250.148438 237.324219 249.796875 C 238.492188 249.441406 239.65625 249.058594 240.808594 248.648438 C 241.960938 248.238281 243.101562 247.796875 244.230469 247.332031 C 245.363281 246.863281 246.480469 246.367188 247.589844 245.847656 C 248.695312 245.324219 249.789062 244.773438 250.867188 244.199219 C 251.949219 243.625 253.011719 243.023438 254.0625 242.394531 C 255.113281 241.765625 256.148438 241.113281 257.167969 240.433594 C 258.183594 239.753906 259.1875 239.050781 260.171875 238.324219 C 261.15625 237.597656 262.121094 236.84375 263.066406 236.070312 C 264.015625 235.292969 264.941406 234.496094 265.851562 233.675781 C 266.757812 232.855469 267.644531 232.011719 268.511719 231.148438 C 269.378906 230.285156 270.226562 229.398438 271.046875 228.492188 C 271.871094 227.585938 272.671875 226.660156 273.449219 225.71875 C 274.230469 224.773438 274.984375 223.808594 275.714844 222.828125 C 276.445312 221.84375 277.152344 220.84375 277.835938 219.828125 L 300.617188 185.871094 C 300.796875 185.605469 300.929688 185.320312 301.015625 185.015625 C 301.101562 184.707031 301.140625 184.394531 301.128906 184.078125 C 301.117188 183.757812 301.054688 183.449219 300.945312 183.152344 C 300.835938 182.851562 300.679688 182.578125 300.484375 182.328125 Z M 189.003906 165.152344 C 189.78125 164.648438 190.582031 164.1875 191.402344 163.765625 C 192.226562 163.34375 193.070312 162.964844 193.929688 162.628906 C 194.792969 162.289062 195.667969 162 196.558594 161.753906 C 197.449219 161.503906 198.351562 161.304688 199.265625 161.148438 C 200.175781 160.996094 201.09375 160.886719 202.015625 160.824219 C 202.9375 160.761719 203.859375 160.75 204.785156 160.78125 C 205.707031 160.8125 206.628906 160.894531 207.542969 161.019531 C 208.457031 161.148438 209.363281 161.320312 210.261719 161.539062 C 211.160156 161.757812 212.042969 162.023438 212.914062 162.332031 C 213.785156 162.640625 214.636719 162.992188 215.472656 163.390625 C 216.308594 163.785156 217.121094 164.222656 217.910156 164.703125 C 218.699219 165.183594 219.460938 165.699219 220.199219 166.257812 C 220.9375 166.816406 221.644531 167.410156 222.320312 168.039062 C 222.996094 168.667969 223.636719 169.328125 224.246094 170.023438 C 224.855469 170.71875 225.425781 171.445312 225.960938 172.199219 C 226.496094 172.949219 226.992188 173.730469 227.449219 174.535156 L 230.664062 180.207031 C 228.738281 179.992188 226.808594 179.914062 224.871094 179.964844 C 222.9375 180.015625 221.011719 180.195312 219.101562 180.511719 C 217.1875 180.824219 215.308594 181.265625 213.457031 181.835938 C 211.605469 182.410156 209.800781 183.101562 208.042969 183.921875 C 206.285156 184.738281 204.589844 185.671875 202.960938 186.722656 C 201.332031 187.769531 199.78125 188.925781 198.308594 190.1875 C 196.835938 191.449219 195.457031 192.804688 194.167969 194.253906 C 192.878906 195.703125 191.695312 197.234375 190.617188 198.84375 L 183.050781 210.121094 C 182.539062 210.878906 181.96875 211.589844 181.34375 212.253906 C 180.71875 212.921875 180.042969 213.53125 179.320312 214.089844 C 178.597656 214.644531 177.832031 215.140625 177.027344 215.574219 C 176.226562 216.007812 175.390625 216.375 174.53125 216.675781 C 173.667969 216.972656 172.785156 217.203125 171.886719 217.359375 C 170.988281 217.519531 170.082031 217.601562 169.171875 217.613281 C 168.257812 217.625 167.351562 217.566406 166.449219 217.429688 C 165.546875 217.296875 164.660156 217.089844 163.792969 216.8125 L 159.136719 215.308594 L 158.304688 207.261719 C 158.144531 205.703125 158.089844 204.144531 158.144531 202.578125 C 158.195312 201.015625 158.355469 199.460938 158.625 197.917969 C 158.890625 196.375 159.261719 194.859375 159.738281 193.367188 C 160.214844 191.875 160.792969 190.421875 161.46875 189.011719 C 162.144531 187.597656 162.914062 186.238281 163.777344 184.929688 C 164.636719 183.625 165.585938 182.382812 166.621094 181.207031 C 167.652344 180.03125 168.761719 178.929688 169.945312 177.90625 C 171.132812 176.882812 172.378906 175.945312 173.695312 175.089844 Z M 135.402344 199.894531 C 131.433594 197.234375 127.914062 194.074219 124.835938 190.417969 C 128.660156 193.261719 132.546875 196.019531 136.476562 198.65625 L 139.832031 193.65625 C 131.78125 188.257812 123.921875 182.382812 116.449219 176.203125 C 115.613281 174.128906 114.917969 172.003906 114.367188 169.835938 C 114.019531 168.433594 113.785156 167.019531 113.558594 165.605469 C 118.707031 171.167969 124.421875 176.066406 130.703125 180.296875 L 134.058594 175.300781 C 126 169.882812 118.980469 163.347656 112.996094 155.699219 C 113.144531 151.777344 113.738281 147.925781 114.773438 144.136719 C 115.8125 140.351562 117.265625 136.734375 119.132812 133.285156 C 122.4375 144.042969 127.144531 154.144531 133.253906 163.59375 L 138.300781 160.320312 C 131.515625 149.824219 126.5625 138.523438 123.445312 126.417969 L 131.121094 114.972656 C 132.898438 124.941406 135.730469 134.597656 139.609375 143.945312 C 143.492188 153.292969 148.332031 162.109375 154.136719 170.398438 L 159.058594 166.9375 C 152.886719 158.121094 147.859375 148.695312 143.972656 138.65625 C 140.089844 128.617188 137.457031 118.257812 136.082031 107.578125 L 147.066406 91.210938 C 146.828125 94.699219 146.75 98.1875 146.835938 101.683594 C 146.921875 105.175781 147.167969 108.65625 147.578125 112.128906 C 147.988281 115.597656 148.558594 119.042969 149.289062 122.457031 C 150.019531 125.875 150.910156 129.25 151.953125 132.582031 C 153 135.914062 154.195312 139.191406 155.546875 142.414062 C 156.894531 145.636719 158.390625 148.785156 160.035156 151.867188 C 161.679688 154.949219 163.460938 157.945312 165.386719 160.863281 C 167.308594 163.777344 169.363281 166.59375 171.546875 169.316406 L 170.433594 170.039062 C 169.050781 170.933594 167.730469 171.910156 166.472656 172.96875 C 165.210938 174.023438 164.019531 175.15625 162.898438 176.359375 C 161.777344 177.5625 160.734375 178.832031 159.765625 180.164062 C 158.800781 181.496094 157.921875 182.882812 157.128906 184.324219 C 156.332031 185.765625 155.628906 187.25 155.019531 188.777344 C 154.40625 190.304688 153.890625 191.863281 153.472656 193.453125 C 153.050781 195.042969 152.730469 196.652344 152.511719 198.285156 C 152.289062 199.914062 152.167969 201.550781 152.148438 203.195312 L 144.503906 206.003906 Z M 145.425781 239.238281 L 150.457031 231.738281 L 145.46875 228.390625 L 140.53125 235.746094 C 137.949219 233.835938 135.488281 231.78125 133.148438 229.578125 L 145.3125 222.660156 L 142.347656 217.433594 L 128.816406 225.125 C 127.277344 223.410156 125.808594 221.632812 124.410156 219.785156 L 152.484375 209.476562 L 153.355469 217.886719 C 153.453125 218.820312 153.890625 219.546875 154.667969 220.070312 C 154.902344 220.226562 155.152344 220.347656 155.417969 220.433594 L 161.382812 222.359375 L 150.199219 242.4375 Z M 209.265625 246.664062 C 199.753906 241.191406 190.800781 234.917969 182.414062 227.835938 L 178.53125 232.4375 C 182.847656 236.085938 187.378906 239.492188 192.019531 242.746094 C 184.875 240.136719 178.347656 236.441406 172.4375 231.652344 C 170.273438 229.882812 168.203125 228.003906 166.234375 226.019531 L 167.609375 223.542969 C 169.601562 223.660156 171.574219 223.523438 173.53125 223.128906 C 175.488281 222.734375 177.363281 222.09375 179.15625 221.210938 C 180.945312 220.328125 182.59375 219.230469 184.101562 217.917969 C 185.605469 216.605469 186.917969 215.125 188.039062 213.46875 L 195.605469 202.191406 C 197.324219 199.632812 199.335938 197.324219 201.636719 195.273438 C 203.9375 193.222656 206.457031 191.492188 209.199219 190.078125 C 215.804688 192.054688 222.519531 193.539062 229.347656 194.53125 C 236.171875 195.523438 243.035156 196.011719 249.933594 196 C 256.835938 195.984375 263.695312 195.46875 270.523438 194.449219 C 277.347656 193.429688 284.0625 191.921875 290.667969 189.917969 L 280.796875 204.632812 C 271.894531 206.265625 262.921875 207.019531 253.878906 206.890625 C 244.832031 206.761719 235.886719 205.753906 227.042969 203.863281 L 219.539062 202.265625 L 218.277344 208.148438 L 225.78125 209.746094 C 234.066406 211.519531 242.445312 212.550781 250.914062 212.839844 C 259.382812 213.128906 267.8125 212.675781 276.203125 211.476562 L 272.851562 216.472656 C 270.679688 219.6875 268.257812 222.695312 265.582031 225.503906 C 254.570312 224.765625 243.730469 222.964844 233.074219 220.101562 C 222.417969 217.234375 212.140625 213.359375 202.246094 208.472656 L 201.886719 208.296875 L 199.222656 213.691406 L 199.578125 213.871094 C 209 218.523438 218.761719 222.289062 228.863281 225.175781 C 238.964844 228.0625 249.246094 230.019531 259.707031 231.046875 C 254.042969 235.777344 247.785156 239.496094 240.925781 242.207031 C 233.40625 240.589844 226.105469 238.28125 219.027344 235.277344 C 211.949219 232.273438 205.21875 228.625 198.835938 224.335938 L 195.484375 229.335938 C 206.082031 236.453125 217.496094 241.847656 229.726562 245.523438 C 222.960938 246.929688 216.140625 247.308594 209.265625 246.664062 Z M 209.265625 246.664062 "/></g></g></g></g></svg>