<?xml version="1.0" encoding="UTF-8"?><svg xmlns="http://www.w3.org/2000/svg" xmlns:xlink="http://www.w3.org/1999/xlink" width="375pt" zoomAndPan="magnify" viewBox="0 0 375 374.999991" height="374.999991pt" preserveAspectRatio="xMidYMid meet" version="1.2"><defs><g/><clipPath xml:id="clip1" id="clip1"><path d="M 37 129 L 156 129 L 156 232 L 37 232 Z M 37 129 "/></clipPath><clipPath xml:id="clip2" id="clip2"><path d="M 53.425781 129.046875 L 157.769531 171.101562 L 125.25 251.792969 L 20.90625 209.742188 Z M 53.425781 129.046875 "/></clipPath><clipPath xml:id="clip3" id="clip3"><path d="M 53.425781 129.046875 L 157.769531 171.101562 L 125.25 251.792969 L 20.90625 209.742188 Z M 53.425781 129.046875 "/></clipPath></defs><g xml:id="surface1" id="surface1"><g clip-rule="nonzero" clip-path="url(#clip1)"><g clip-rule="nonzero" clip-path="url(#clip2)"><g clip-rule="nonzero" clip-path="url(#clip3)"><path style=" stroke:none;fill-rule:nonzero;fill:rgb(74.119568%,91.369629%,47.059631%);fill-opacity:1;" d="M 155.324219 173.410156 C 155.023438 173.15625 154.675781 173.019531 154.28125 172.996094 C 153.890625 172.96875 153.527344 173.0625 153.195312 173.273438 C 149.847656 175.398438 146.367188 177.265625 142.746094 178.878906 C 139.125 180.496094 135.40625 181.835938 131.589844 182.90625 C 127.773438 183.980469 123.898438 184.765625 119.96875 185.273438 C 116.035156 185.777344 112.089844 185.996094 108.125 185.925781 C 111.222656 184.660156 114.441406 184.128906 117.78125 184.332031 C 118.148438 184.355469 118.488281 184.273438 118.804688 184.089844 C 119.121094 183.90625 119.359375 183.648438 119.523438 183.320312 C 119.683594 182.992188 119.738281 182.644531 119.6875 182.28125 C 119.640625 181.921875 119.492188 181.601562 119.25 181.328125 L 114.050781 175.453125 C 113.601562 174.945312 113.125 174.460938 112.625 174 C 112.125 173.539062 111.605469 173.105469 111.0625 172.695312 C 110.519531 172.289062 109.953125 171.910156 109.371094 171.558594 C 108.789062 171.210938 108.191406 170.890625 107.574219 170.601562 C 106.960938 170.3125 106.332031 170.054688 105.691406 169.828125 C 105.050781 169.605469 104.398438 169.414062 103.738281 169.253906 C 103.078125 169.09375 102.410156 168.96875 101.738281 168.878906 C 101.0625 168.789062 100.386719 168.730469 99.707031 168.710938 C 99.03125 168.6875 98.351562 168.699219 97.671875 168.746094 C 96.996094 168.796875 96.320312 168.875 95.652344 168.992188 C 94.984375 169.109375 94.320312 169.257812 93.667969 169.441406 C 93.011719 169.625 92.371094 169.839844 91.738281 170.089844 C 91.105469 170.339844 90.488281 170.621094 89.882812 170.929688 C 89.28125 171.242188 88.695312 171.585938 88.125 171.957031 C 87.558594 172.328125 87.007812 172.726562 86.480469 173.15625 C 85.953125 173.582031 85.449219 174.035156 84.96875 174.515625 L 80.332031 179.125 C 77.144531 176.550781 74.234375 173.699219 71.59375 170.566406 C 68.957031 167.433594 66.640625 164.078125 64.644531 160.503906 C 62.648438 156.925781 61.011719 153.195312 59.734375 149.304688 C 58.453125 145.414062 57.558594 141.4375 57.042969 137.378906 L 56.296875 131.402344 C 56.246094 130.996094 56.074219 130.644531 55.785156 130.351562 C 55.492188 130.0625 55.144531 129.886719 54.734375 129.835938 C 54.324219 129.78125 53.945312 129.859375 53.585938 130.066406 C 53.230469 130.273438 52.976562 130.566406 52.824219 130.949219 L 39.929688 162.9375 C 39.511719 163.976562 39.144531 165.035156 38.828125 166.113281 C 38.515625 167.1875 38.253906 168.277344 38.042969 169.378906 C 37.835938 170.480469 37.683594 171.589844 37.582031 172.707031 C 37.484375 173.824219 37.441406 174.945312 37.453125 176.066406 C 37.460938 177.1875 37.527344 178.308594 37.648438 179.421875 C 37.769531 180.535156 37.945312 181.644531 38.175781 182.742188 C 38.40625 183.839844 38.6875 184.921875 39.023438 185.992188 C 39.359375 187.0625 39.746094 188.117188 40.1875 189.148438 C 40.625 190.179688 41.117188 191.1875 41.652344 192.171875 C 42.191406 193.15625 42.777344 194.113281 43.410156 195.039062 C 44.042969 195.964844 44.71875 196.859375 45.441406 197.71875 C 46.160156 198.578125 46.921875 199.402344 47.722656 200.1875 C 48.523438 200.972656 49.359375 201.71875 50.234375 202.421875 C 51.109375 203.125 52.015625 203.785156 52.953125 204.398438 C 53.894531 205.011719 54.859375 205.578125 55.855469 206.097656 C 56.851562 206.617188 57.867188 207.085938 58.910156 207.507812 L 62.589844 208.992188 L 52.324219 215.40625 C 52.089844 215.554688 51.898438 215.746094 51.75 215.984375 C 51.601562 216.222656 51.511719 216.480469 51.484375 216.757812 C 51.457031 217.035156 51.492188 217.304688 51.585938 217.566406 C 51.683594 217.828125 51.832031 218.054688 52.035156 218.25 C 56.890625 222.90625 62.441406 226.488281 68.6875 229 L 74.757812 231.445312 C 74.992188 231.539062 75.234375 231.585938 75.488281 231.578125 C 75.742188 231.570312 75.984375 231.511719 76.210938 231.402344 C 76.441406 231.296875 76.640625 231.144531 76.804688 230.953125 C 76.972656 230.761719 77.09375 230.546875 77.167969 230.304688 L 80.574219 219.285156 C 81.824219 220.0625 83.09375 220.808594 84.394531 221.480469 C 85.617188 222.101562 86.863281 222.667969 88.128906 223.179688 C 89.496094 223.730469 90.886719 224.210938 92.300781 224.625 C 93.714844 225.039062 95.148438 225.378906 96.59375 225.652344 C 98.042969 225.925781 99.5 226.128906 100.96875 226.257812 C 102.433594 226.386719 103.90625 226.445312 105.378906 226.429688 C 106.851562 226.414062 108.320312 226.328125 109.785156 226.167969 C 111.25 226.011719 112.703125 225.78125 114.144531 225.480469 C 115.585938 225.175781 117.011719 224.804688 118.417969 224.363281 C 119.820312 223.921875 121.203125 223.414062 122.558594 222.839844 C 123.914062 222.261719 125.234375 221.621094 126.527344 220.914062 C 127.820312 220.207031 129.074219 219.4375 130.292969 218.609375 C 131.507812 217.777344 132.679688 216.890625 133.8125 215.945312 C 134.941406 215 136.019531 214.003906 137.050781 212.953125 C 138.082031 211.898438 139.058594 210.800781 139.984375 209.652344 C 140.90625 208.507812 141.773438 207.316406 142.578125 206.085938 C 143.382812 204.851562 144.128906 203.585938 144.808594 202.277344 C 145.492188 200.972656 146.109375 199.640625 146.65625 198.273438 L 155.847656 175.476562 C 155.992188 175.113281 156.019531 174.738281 155.921875 174.359375 C 155.824219 173.976562 155.625 173.660156 155.324219 173.410156 Z M 87.507812 177.082031 C 87.902344 176.691406 88.3125 176.320312 88.746094 175.96875 C 89.179688 175.621094 89.628906 175.292969 90.09375 174.988281 C 90.558594 174.683594 91.039062 174.402344 91.53125 174.148438 C 92.027344 173.894531 92.535156 173.664062 93.050781 173.460938 C 93.570312 173.253906 94.09375 173.078125 94.632812 172.929688 C 95.167969 172.777344 95.707031 172.65625 96.257812 172.5625 C 96.804688 172.464844 97.355469 172.398438 97.914062 172.359375 C 98.46875 172.320312 99.023438 172.3125 99.578125 172.328125 C 100.136719 172.347656 100.6875 172.394531 101.242188 172.46875 C 101.792969 172.542969 102.339844 172.644531 102.878906 172.773438 C 103.421875 172.902344 103.953125 173.0625 104.480469 173.246094 C 105.003906 173.429688 105.519531 173.640625 106.023438 173.878906 C 106.527344 174.113281 107.015625 174.375 107.492188 174.664062 C 107.96875 174.949219 108.429688 175.257812 108.875 175.59375 C 109.320312 175.925781 109.75 176.28125 110.15625 176.660156 C 110.566406 177.035156 110.957031 177.433594 111.324219 177.851562 L 113.925781 180.792969 C 112.765625 180.902344 111.617188 181.09375 110.484375 181.363281 C 109.351562 181.632812 108.238281 181.976562 107.152344 182.398438 C 106.066406 182.820312 105.011719 183.3125 103.992188 183.878906 C 102.972656 184.441406 101.996094 185.074219 101.0625 185.773438 C 100.128906 186.472656 99.25 187.230469 98.417969 188.046875 C 97.589844 188.867188 96.820312 189.738281 96.109375 190.664062 C 95.398438 191.585938 94.753906 192.554688 94.175781 193.566406 C 93.597656 194.578125 93.09375 195.625 92.660156 196.707031 L 89.605469 204.277344 C 89.398438 204.785156 89.152344 205.273438 88.867188 205.746094 C 88.582031 206.214844 88.261719 206.65625 87.902344 207.074219 C 87.546875 207.492188 87.160156 207.875 86.738281 208.230469 C 86.320312 208.585938 85.875 208.902344 85.40625 209.1875 C 84.933594 209.46875 84.445312 209.714844 83.933594 209.917969 C 83.425781 210.121094 82.902344 210.28125 82.363281 210.402344 C 81.828125 210.523438 81.285156 210.597656 80.738281 210.632812 C 80.191406 210.664062 79.644531 210.652344 79.097656 210.597656 L 76.164062 210.285156 L 74.671875 205.652344 C 74.382812 204.757812 74.15625 203.847656 73.992188 202.917969 C 73.828125 201.992188 73.730469 201.058594 73.695312 200.117188 C 73.660156 199.175781 73.691406 198.238281 73.785156 197.300781 C 73.878906 196.363281 74.035156 195.4375 74.257812 194.523438 C 74.480469 193.609375 74.765625 192.714844 75.109375 191.839844 C 75.453125 190.964844 75.859375 190.117188 76.320312 189.296875 C 76.78125 188.476562 77.300781 187.691406 77.871094 186.941406 C 78.4375 186.195312 79.058594 185.488281 79.726562 184.824219 Z M 60.261719 204.152344 C 57.589844 203.074219 55.121094 201.652344 52.855469 199.882812 C 55.460938 201.082031 58.09375 202.222656 60.738281 203.289062 L 62.089844 199.933594 C 56.675781 197.75 51.3125 195.265625 46.140625 192.554688 C 45.390625 191.4375 44.714844 190.273438 44.117188 189.066406 C 43.742188 188.28125 43.425781 187.480469 43.117188 186.675781 C 46.839844 189.3125 50.820312 191.488281 55.050781 193.203125 L 56.402344 189.847656 C 50.976562 187.65625 46.027344 184.679688 41.550781 180.914062 C 40.734375 176.203125 41.007812 171.554688 42.367188 166.96875 C 45.65625 172.890625 49.691406 178.253906 54.464844 183.058594 L 57.03125 180.507812 C 51.726562 175.171875 47.398438 169.132812 44.050781 162.394531 L 47.148438 154.714844 C 49.4375 160.359375 52.308594 165.691406 55.761719 170.710938 C 59.214844 175.730469 63.167969 180.320312 67.617188 184.480469 L 70.085938 181.835938 C 65.351562 177.410156 61.214844 172.484375 57.671875 167.058594 C 54.132812 161.632812 51.289062 155.863281 49.148438 149.75 L 53.578125 138.761719 C 54.167969 142.933594 55.136719 147.015625 56.488281 151.003906 C 57.839844 154.996094 59.550781 158.828125 61.617188 162.5 C 63.683594 166.171875 66.070312 169.621094 68.78125 172.847656 C 71.492188 176.074219 74.480469 179.023438 77.742188 181.691406 L 77.175781 182.253906 C 75.765625 183.652344 74.546875 185.203125 73.523438 186.902344 C 72.5 188.605469 71.695312 190.402344 71.117188 192.304688 C 70.539062 194.203125 70.199219 196.144531 70.101562 198.128906 C 70.003906 200.109375 70.148438 202.074219 70.539062 204.023438 L 66.386719 206.621094 Z M 71.074219 226.058594 L 73.101562 221.027344 L 69.746094 219.675781 L 67.753906 224.609375 C 65.996094 223.808594 64.289062 222.902344 62.636719 221.894531 L 68.941406 216.320312 L 66.539062 213.609375 L 59.527344 219.808594 C 58.40625 218.992188 57.320312 218.125 56.265625 217.210938 L 71.519531 207.675781 L 73.082031 212.515625 C 73.253906 213.054688 73.601562 213.429688 74.128906 213.640625 C 74.285156 213.703125 74.445312 213.742188 74.613281 213.761719 L 78.367188 214.15625 L 74.285156 227.355469 Z M 109.609375 222.539062 C 103.320312 220.496094 97.265625 217.910156 91.441406 214.78125 L 89.730469 217.964844 C 92.726562 219.582031 95.820312 221.023438 98.960938 222.367188 C 94.425781 221.714844 90.121094 220.34375 86.039062 218.257812 C 84.542969 217.484375 83.089844 216.632812 81.683594 215.710938 L 82.183594 214.082031 C 83.371094 213.90625 84.519531 213.582031 85.621094 213.109375 C 86.726562 212.632812 87.75 212.027344 88.695312 211.285156 C 89.640625 210.542969 90.472656 209.695312 91.199219 208.734375 C 91.921875 207.777344 92.511719 206.742188 92.964844 205.632812 L 96.015625 198.058594 C 97.425781 194.566406 99.589844 191.628906 102.511719 189.253906 C 106.648438 189.597656 110.792969 189.640625 114.9375 189.382812 C 119.082031 189.121094 123.1875 188.5625 127.25 187.699219 C 131.3125 186.839844 135.289062 185.6875 139.183594 184.246094 C 143.078125 182.800781 146.847656 181.082031 150.488281 179.085938 L 146.507812 188.964844 C 141.46875 191.027344 136.277344 192.582031 130.929688 193.621094 C 125.585938 194.664062 120.191406 195.175781 114.746094 195.15625 L 110.125 195.144531 L 110.113281 198.761719 L 114.734375 198.773438 C 125.019531 198.8125 134.992188 197.074219 144.65625 193.558594 L 143.304688 196.914062 C 142.425781 199.074219 141.375 201.144531 140.148438 203.125 C 133.566406 204.054688 126.957031 204.335938 120.320312 203.964844 C 113.6875 203.597656 107.148438 202.585938 100.710938 200.933594 L 100.476562 200.875 L 99.578125 204.378906 L 99.8125 204.441406 C 112.171875 207.609375 124.695312 208.503906 137.378906 207.113281 C 134.632812 210.597656 131.40625 213.558594 127.703125 216 C 118.355469 215.960938 109.347656 214.191406 100.679688 210.691406 L 99.328125 214.046875 C 106.460938 216.921875 113.855469 218.6875 121.519531 219.335938 C 117.710938 221 113.742188 222.070312 109.609375 222.539062 Z M 109.609375 222.539062 "/></g></g></g><g style="fill:rgb(53.729248%,62.748718%,45.878601%);fill-opacity:0.4;"><g transform="translate(162.511394, 182.034422)"><path style="stroke:none;" d="M 16.902344 -17.527344 L 9.21875 -21.964844 L 1.53125 -17.527344 L 1.53125 -2.15625 L 5.375 0.21875 L 5.375 -6.59375 L 9.21875 -4.21875 L 16.902344 -8.65625 Z M 5.375 -11.03125 L 5.375 -15.464844 L 9.21875 -17.527344 L 13.027344 -15.464844 L 13.027344 -11.03125 L 9.21875 -8.65625 Z M 5.375 -11.03125 "/></g></g><g style="fill:rgb(53.729248%,62.748718%,45.878601%);fill-opacity:0.4;"><g transform="translate(180.944288, 182.034422)"><path style="stroke:none;" d="M 9.28125 -22.027344 L 1.59375 -17.621094 L 1.59375 -4.3125 L 9.28125 0.125 L 16.964844 -4.3125 L 16.964844 -8.75 L 9.28125 -4.3125 L 5.4375 -6.375 L 5.4375 -10.8125 L 9.28125 -8.75 L 13.121094 -10.8125 L 5.4375 -15.246094 L 9.28125 -17.621094 L 13.121094 -15.527344 L 16.964844 -17.621094 Z M 9.28125 -22.027344 "/></g></g><g style="fill:rgb(53.729248%,62.748718%,45.878601%);fill-opacity:0.4;"><g transform="translate(198.752335, 182.034422)"><path style="stroke:none;" d="M 9.28125 -21.777344 L 1.5625 -17.339844 L 1.5625 -1.96875 L 5.40625 0.40625 L 5.40625 -6.40625 L 16.933594 0.40625 L 16.933594 -4.03125 L 13.121094 -6.40625 L 16.933594 -8.46875 L 16.933594 -17.339844 Z M 9.28125 -17.339844 L 13.121094 -15.277344 L 13.121094 -10.84375 L 9.28125 -8.46875 L 5.40625 -10.84375 L 5.40625 -15.277344 Z M 9.28125 -17.339844 "/></g></g><g style="fill:rgb(53.729248%,62.748718%,45.878601%);fill-opacity:0.4;"><g transform="translate(217.247714, 182.034422)"><path style="stroke:none;" d="M 9.25 0.21875 L 16.902344 -4.5 L 16.902344 -19.871094 L 13.058594 -21.964844 L 13.058594 -6.59375 L 9.25 -4.21875 L 5.375 -6.59375 L 5.375 -21.964844 L 1.53125 -19.871094 L 1.53125 -4.21875 Z M 9.25 0.21875 "/></g></g><g style="fill:rgb(53.729248%,62.748718%,45.878601%);fill-opacity:0.4;"><g transform="translate(235.743093, 182.034422)"><path style="stroke:none;" d="M 1.53125 -1.875 L 5.375 0.1875 L 5.375 -6.3125 L 9.21875 -4.25 L 13.058594 -6.3125 L 13.058594 0.1875 L 16.902344 -1.875 L 16.902344 -17.558594 L 9.21875 -21.964844 L 1.53125 -17.558594 Z M 13.058594 -10.75 L 9.21875 -8.6875 L 5.375 -10.75 L 5.375 -15.183594 L 9.21875 -17.558594 L 13.058594 -15.183594 Z M 13.058594 -10.75 "/></g></g><g style="fill:rgb(53.729248%,62.748718%,45.878601%);fill-opacity:0.4;"><g transform="translate(254.238472, 182.034422)"><path style="stroke:none;" d="M 5.34375 -10.96875 L 5.34375 -15.402344 L 8.90625 -17.464844 L 8.90625 -18.339844 L 13.621094 -15.683594 L 16.871094 -17.464844 L 9.21875 -21.902344 L 1.5 -17.464844 L 1.5 -8.59375 L 9.21875 -4.15625 L 9.21875 -8.59375 C 7.125 -9.78125 6.21875 -10.375 5.34375 -10.96875 Z M 9.21875 -13.027344 L 13.027344 -10.96875 L 13.027344 -6.53125 L 9.21875 -4.15625 L 9.21875 -3.28125 L 4.46875 -5.9375 L 1.5 -4.15625 L 9.21875 0.28125 L 16.871094 -4.15625 L 16.871094 -13.027344 C 14.214844 -14.527344 11.5625 -15.996094 9.21875 -17.464844 Z M 9.21875 -13.027344 "/></g></g><g style="fill:rgb(53.729248%,62.748718%,45.878601%);fill-opacity:0.4;"><g transform="translate(272.608882, 182.034422)"><path style="stroke:none;" d="M 1.75 -21.871094 L 1.75 -1.78125 L 5.5625 0.28125 L 5.5625 -19.527344 Z M 1.75 -21.871094 "/></g></g><g style="fill:rgb(53.729248%,62.748718%,45.878601%);fill-opacity:0.4;"><g transform="translate(279.888308, 182.034422)"><path style="stroke:none;" d="M 9.25 0.21875 L 16.902344 -4.5 L 16.902344 -19.871094 L 13.058594 -21.964844 L 13.058594 -6.59375 L 9.25 -4.21875 L 5.375 -6.59375 L 5.375 -21.964844 L 1.53125 -19.871094 L 1.53125 -4.21875 Z M 9.25 0.21875 "/></g></g><g style="fill:rgb(53.729248%,62.748718%,45.878601%);fill-opacity:0.4;"><g transform="translate(298.383687, 182.034422)"><path style="stroke:none;" d="M 9.28125 -22.027344 L 1.59375 -17.621094 L 1.59375 -4.3125 L 9.28125 0.125 L 16.964844 -4.3125 L 16.964844 -8.75 L 9.28125 -4.3125 L 5.4375 -6.375 L 5.4375 -10.8125 L 9.28125 -8.75 L 13.121094 -10.8125 L 5.4375 -15.246094 L 9.28125 -17.621094 L 13.121094 -15.527344 L 16.964844 -17.621094 Z M 9.28125 -22.027344 "/></g></g><g style="fill:rgb(100%,100%,100%);fill-opacity:1;"><g transform="translate(162.511394, 180.549994)"><path style="stroke:none;" d="M 16.902344 -17.527344 L 9.21875 -21.964844 L 1.53125 -17.527344 L 1.53125 -2.15625 L 5.375 0.21875 L 5.375 -6.59375 L 9.21875 -4.21875 L 16.902344 -8.65625 Z M 5.375 -11.03125 L 5.375 -15.464844 L 9.21875 -17.527344 L 13.027344 -15.464844 L 13.027344 -11.03125 L 9.21875 -8.65625 Z M 5.375 -11.03125 "/></g></g><g style="fill:rgb(100%,100%,100%);fill-opacity:1;"><g transform="translate(180.944288, 180.549994)"><path style="stroke:none;" d="M 9.28125 -22.027344 L 1.59375 -17.621094 L 1.59375 -4.3125 L 9.28125 0.125 L 16.964844 -4.3125 L 16.964844 -8.75 L 9.28125 -4.3125 L 5.4375 -6.375 L 5.4375 -10.8125 L 9.28125 -8.75 L 13.121094 -10.8125 L 5.4375 -15.246094 L 9.28125 -17.621094 L 13.121094 -15.527344 L 16.964844 -17.621094 Z M 9.28125 -22.027344 "/></g></g><g style="fill:rgb(100%,100%,100%);fill-opacity:1;"><g transform="translate(198.752335, 180.549994)"><path style="stroke:none;" d="M 9.28125 -21.777344 L 1.5625 -17.339844 L 1.5625 -1.96875 L 5.40625 0.40625 L 5.40625 -6.40625 L 16.933594 0.40625 L 16.933594 -4.03125 L 13.121094 -6.40625 L 16.933594 -8.46875 L 16.933594 -17.339844 Z M 9.28125 -17.339844 L 13.121094 -15.277344 L 13.121094 -10.84375 L 9.28125 -8.46875 L 5.40625 -10.84375 L 5.40625 -15.277344 Z M 9.28125 -17.339844 "/></g></g><g style="fill:rgb(100%,100%,100%);fill-opacity:1;"><g transform="translate(217.247714, 180.549994)"><path style="stroke:none;" d="M 9.25 0.21875 L 16.902344 -4.5 L 16.902344 -19.871094 L 13.058594 -21.964844 L 13.058594 -6.59375 L 9.25 -4.21875 L 5.375 -6.59375 L 5.375 -21.964844 L 1.53125 -19.871094 L 1.53125 -4.21875 Z M 9.25 0.21875 "/></g></g><g style="fill:rgb(100%,100%,100%);fill-opacity:1;"><g transform="translate(235.743093, 180.549994)"><path style="stroke:none;" d="M 1.53125 -1.875 L 5.375 0.1875 L 5.375 -6.3125 L 9.21875 -4.25 L 13.058594 -6.3125 L 13.058594 0.1875 L 16.902344 -1.875 L 16.902344 -17.558594 L 9.21875 -21.964844 L 1.53125 -17.558594 Z M 13.058594 -10.75 L 9.21875 -8.6875 L 5.375 -10.75 L 5.375 -15.183594 L 9.21875 -17.558594 L 13.058594 -15.183594 Z M 13.058594 -10.75 "/></g></g><g style="fill:rgb(100%,100%,100%);fill-opacity:1;"><g transform="translate(254.238472, 180.549994)"><path style="stroke:none;" d="M 5.34375 -10.96875 L 5.34375 -15.402344 L 8.90625 -17.464844 L 8.90625 -18.339844 L 13.621094 -15.683594 L 16.871094 -17.464844 L 9.21875 -21.902344 L 1.5 -17.464844 L 1.5 -8.59375 L 9.21875 -4.15625 L 9.21875 -8.59375 C 7.125 -9.78125 6.21875 -10.375 5.34375 -10.96875 Z M 9.21875 -13.027344 L 13.027344 -10.96875 L 13.027344 -6.53125 L 9.21875 -4.15625 L 9.21875 -3.28125 L 4.46875 -5.9375 L 1.5 -4.15625 L 9.21875 0.28125 L 16.871094 -4.15625 L 16.871094 -13.027344 C 14.214844 -14.527344 11.5625 -15.996094 9.21875 -17.464844 Z M 9.21875 -13.027344 "/></g></g><g style="fill:rgb(100%,100%,100%);fill-opacity:1;"><g transform="translate(272.608882, 180.549994)"><path style="stroke:none;" d="M 1.75 -21.871094 L 1.75 -1.78125 L 5.5625 0.28125 L 5.5625 -19.527344 Z M 1.75 -21.871094 "/></g></g><g style="fill:rgb(100%,100%,100%);fill-opacity:1;"><g transform="translate(279.888308, 180.549994)"><path style="stroke:none;" d="M 9.25 0.21875 L 16.902344 -4.5 L 16.902344 -19.871094 L 13.058594 -21.964844 L 13.058594 -6.59375 L 9.25 -4.21875 L 5.375 -6.59375 L 5.375 -21.964844 L 1.53125 -19.871094 L 1.53125 -4.21875 Z M 9.25 0.21875 "/></g></g><g style="fill:rgb(100%,100%,100%);fill-opacity:1;"><g transform="translate(298.383687, 180.549994)"><path style="stroke:none;" d="M 9.28125 -22.027344 L 1.59375 -17.621094 L 1.59375 -4.3125 L 9.28125 0.125 L 16.964844 -4.3125 L 16.964844 -8.75 L 9.28125 -4.3125 L 5.4375 -6.375 L 5.4375 -10.8125 L 9.28125 -8.75 L 13.121094 -10.8125 L 5.4375 -15.246094 L 9.28125 -17.621094 L 13.121094 -15.527344 L 16.964844 -17.621094 Z M 9.28125 -22.027344 "/></g></g><g style="fill:rgb(53.729248%,62.748718%,45.878601%);fill-opacity:0.4;"><g transform="translate(177.53483, 225.53442)"><path style="stroke:none;" d="M 16.902344 -17.527344 L 9.21875 -21.964844 L 1.53125 -17.527344 L 1.53125 -2.15625 L 5.375 0.21875 L 5.375 -6.59375 L 9.21875 -4.21875 L 16.902344 -8.65625 Z M 5.375 -11.03125 L 5.375 -15.464844 L 9.21875 -17.527344 L 13.027344 -15.464844 L 13.027344 -11.03125 L 9.21875 -8.65625 Z M 5.375 -11.03125 "/></g></g><g style="fill:rgb(53.729248%,62.748718%,45.878601%);fill-opacity:0.4;"><g transform="translate(195.967725, 225.53442)"><path style="stroke:none;" d="M 1.53125 -1.875 L 5.375 0.1875 L 5.375 -6.3125 L 9.21875 -4.25 L 13.058594 -6.3125 L 13.058594 0.1875 L 16.902344 -1.875 L 16.902344 -17.558594 L 9.21875 -21.964844 L 1.53125 -17.558594 Z M 13.058594 -10.75 L 9.21875 -8.6875 L 5.375 -10.75 L 5.375 -15.183594 L 9.21875 -17.558594 L 13.058594 -15.183594 Z M 13.058594 -10.75 "/></g></g><g style="fill:rgb(53.729248%,62.748718%,45.878601%);fill-opacity:0.4;"><g transform="translate(214.463104, 225.53442)"><path style="stroke:none;" d="M 9.28125 -21.777344 L 1.5625 -17.339844 L 1.5625 -1.96875 L 5.40625 0.40625 L 5.40625 -6.40625 L 16.933594 0.40625 L 16.933594 -4.03125 L 13.121094 -6.40625 L 16.933594 -8.46875 L 16.933594 -17.339844 Z M 9.28125 -17.339844 L 13.121094 -15.277344 L 13.121094 -10.84375 L 9.28125 -8.46875 L 5.40625 -10.84375 L 5.40625 -15.277344 Z M 9.28125 -17.339844 "/></g></g><g style="fill:rgb(53.729248%,62.748718%,45.878601%);fill-opacity:0.4;"><g transform="translate(232.958483, 225.53442)"><path style="stroke:none;" d="M 9.28125 -21.777344 L 1.5625 -17.339844 L 1.5625 -1.96875 L 5.40625 0.40625 L 5.40625 -6.40625 L 16.933594 0.40625 L 16.933594 -4.03125 L 13.121094 -6.40625 L 16.933594 -8.46875 L 16.933594 -17.339844 Z M 9.28125 -17.339844 L 13.121094 -15.277344 L 13.121094 -10.84375 L 9.28125 -8.46875 L 5.40625 -10.84375 L 5.40625 -15.277344 Z M 9.28125 -17.339844 "/></g></g><g style="fill:rgb(53.729248%,62.748718%,45.878601%);fill-opacity:0.4;"><g transform="translate(251.453862, 225.53442)"><path style="stroke:none;" d="M 9.25 -21.933594 L 1.5625 -17.496094 L 1.5625 -4.1875 L 9.25 0.25 L 16.933594 -4.1875 L 16.933594 -17.496094 Z M 13.089844 -15.433594 L 13.089844 -6.5625 L 9.25 -4.1875 L 5.40625 -6.5625 L 5.40625 -15.433594 L 9.25 -17.496094 Z M 13.089844 -15.433594 "/></g></g><g style="fill:rgb(53.729248%,62.748718%,45.878601%);fill-opacity:0.4;"><g transform="translate(269.949241, 225.53442)"><path style="stroke:none;" d="M 0.71875 -15.339844 L 0.71875 -10.90625 L 4.5625 -12.964844 L 4.5625 0.34375 L 8.375 -2.03125 L 8.375 -15.339844 L 12.214844 -17.402344 L 12.214844 -21.839844 Z M 0.71875 -15.339844 "/></g></g><g style="fill:rgb(53.729248%,62.748718%,45.878601%);fill-opacity:0.4;"><g transform="translate(282.789786, 225.53442)"><path style="stroke:none;" d="M 5.34375 -10.96875 L 5.34375 -15.402344 L 8.90625 -17.464844 L 8.90625 -18.339844 L 13.621094 -15.683594 L 16.871094 -17.464844 L 9.21875 -21.902344 L 1.5 -17.464844 L 1.5 -8.59375 L 9.21875 -4.15625 L 9.21875 -8.59375 C 7.125 -9.78125 6.21875 -10.375 5.34375 -10.96875 Z M 9.21875 -13.027344 L 13.027344 -10.96875 L 13.027344 -6.53125 L 9.21875 -4.15625 L 9.21875 -3.28125 L 4.46875 -5.9375 L 1.5 -4.15625 L 9.21875 0.28125 L 16.871094 -4.15625 L 16.871094 -13.027344 C 14.214844 -14.527344 11.5625 -15.996094 9.21875 -17.464844 Z M 9.21875 -13.027344 "/></g></g><g style="fill:rgb(100%,100%,100%);fill-opacity:1;"><g transform="translate(177.53483, 224.049991)"><path style="stroke:none;" d="M 16.902344 -17.527344 L 9.21875 -21.964844 L 1.53125 -17.527344 L 1.53125 -2.15625 L 5.375 0.21875 L 5.375 -6.59375 L 9.21875 -4.21875 L 16.902344 -8.65625 Z M 5.375 -11.03125 L 5.375 -15.464844 L 9.21875 -17.527344 L 13.027344 -15.464844 L 13.027344 -11.03125 L 9.21875 -8.65625 Z M 5.375 -11.03125 "/></g></g><g style="fill:rgb(100%,100%,100%);fill-opacity:1;"><g transform="translate(195.967725, 224.049991)"><path style="stroke:none;" d="M 1.53125 -1.875 L 5.375 0.1875 L 5.375 -6.3125 L 9.21875 -4.25 L 13.058594 -6.3125 L 13.058594 0.1875 L 16.902344 -1.875 L 16.902344 -17.558594 L 9.21875 -21.964844 L 1.53125 -17.558594 Z M 13.058594 -10.75 L 9.21875 -8.6875 L 5.375 -10.75 L 5.375 -15.183594 L 9.21875 -17.558594 L 13.058594 -15.183594 Z M 13.058594 -10.75 "/></g></g><g style="fill:rgb(100%,100%,100%);fill-opacity:1;"><g transform="translate(214.463104, 224.049991)"><path style="stroke:none;" d="M 9.28125 -21.777344 L 1.5625 -17.339844 L 1.5625 -1.96875 L 5.40625 0.40625 L 5.40625 -6.40625 L 16.933594 0.40625 L 16.933594 -4.03125 L 13.121094 -6.40625 L 16.933594 -8.46875 L 16.933594 -17.339844 Z M 9.28125 -17.339844 L 13.121094 -15.277344 L 13.121094 -10.84375 L 9.28125 -8.46875 L 5.40625 -10.84375 L 5.40625 -15.277344 Z M 9.28125 -17.339844 "/></g></g><g style="fill:rgb(100%,100%,100%);fill-opacity:1;"><g transform="translate(232.958483, 224.049991)"><path style="stroke:none;" d="M 9.28125 -21.777344 L 1.5625 -17.339844 L 1.5625 -1.96875 L 5.40625 0.40625 L 5.40625 -6.40625 L 16.933594 0.40625 L 16.933594 -4.03125 L 13.121094 -6.40625 L 16.933594 -8.46875 L 16.933594 -17.339844 Z M 9.28125 -17.339844 L 13.121094 -15.277344 L 13.121094 -10.84375 L 9.28125 -8.46875 L 5.40625 -10.84375 L 5.40625 -15.277344 Z M 9.28125 -17.339844 "/></g></g><g style="fill:rgb(100%,100%,100%);fill-opacity:1;"><g transform="translate(251.453862, 224.049991)"><path style="stroke:none;" d="M 9.25 -21.933594 L 1.5625 -17.496094 L 1.5625 -4.1875 L 9.25 0.25 L 16.933594 -4.1875 L 16.933594 -17.496094 Z M 13.089844 -15.433594 L 13.089844 -6.5625 L 9.25 -4.1875 L 5.40625 -6.5625 L 5.40625 -15.433594 L 9.25 -17.496094 Z M 13.089844 -15.433594 "/></g></g><g style="fill:rgb(100%,100%,100%);fill-opacity:1;"><g transform="translate(269.949241, 224.049991)"><path style="stroke:none;" d="M 0.71875 -15.339844 L 0.71875 -10.90625 L 4.5625 -12.964844 L 4.5625 0.34375 L 8.375 -2.03125 L 8.375 -15.339844 L 12.214844 -17.402344 L 12.214844 -21.839844 Z M 0.71875 -15.339844 "/></g></g><g style="fill:rgb(100%,100%,100%);fill-opacity:1;"><g transform="translate(282.789786, 224.049991)"><path style="stroke:none;" d="M 5.34375 -10.96875 L 5.34375 -15.402344 L 8.90625 -17.464844 L 8.90625 -18.339844 L 13.621094 -15.683594 L 16.871094 -17.464844 L 9.21875 -21.902344 L 1.5 -17.464844 L 1.5 -8.59375 L 9.21875 -4.15625 L 9.21875 -8.59375 C 7.125 -9.78125 6.21875 -10.375 5.34375 -10.96875 Z M 9.21875 -13.027344 L 13.027344 -10.96875 L 13.027344 -6.53125 L 9.21875 -4.15625 L 9.21875 -3.28125 L 4.46875 -5.9375 L 1.5 -4.15625 L 9.21875 0.28125 L 16.871094 -4.15625 L 16.871094 -13.027344 C 14.214844 -14.527344 11.5625 -15.996094 9.21875 -17.464844 Z M 9.21875 -13.027344 "/></g></g><g style="fill:rgb(65.098572%,65.098572%,65.098572%);fill-opacity:1;"><g transform="translate(176.643363, 251.855038)"><path style="stroke:none;" d="M 3.921875 -4.890625 L 3.921875 0 L 1.125 0 L 1.125 -13.90625 L 5.859375 -13.90625 C 7.234375 -13.90625 8.328125 -13.476562 9.140625 -12.625 C 9.960938 -11.769531 10.375 -10.660156 10.375 -9.296875 C 10.375 -7.941406 9.96875 -6.867188 9.15625 -6.078125 C 8.351562 -5.285156 7.234375 -4.890625 5.796875 -4.890625 Z M 3.921875 -7.234375 L 5.859375 -7.234375 C 6.390625 -7.234375 6.800781 -7.40625 7.09375 -7.75 C 7.382812 -8.101562 7.53125 -8.613281 7.53125 -9.28125 C 7.53125 -9.976562 7.378906 -10.53125 7.078125 -10.9375 C 6.785156 -11.351562 6.390625 -11.5625 5.890625 -11.5625 L 3.921875 -11.5625 Z M 3.921875 -7.234375 "/></g></g><g style="fill:rgb(65.098572%,65.098572%,65.098572%);fill-opacity:1;"><g transform="translate(192.642526, 251.855038)"><path style="stroke:none;" d="M 10.90625 -5.703125 C 10.90625 -3.835938 10.460938 -2.390625 9.578125 -1.359375 C 8.703125 -0.328125 7.476562 0.1875 5.90625 0.1875 C 4.351562 0.1875 3.128906 -0.320312 2.234375 -1.34375 C 1.335938 -2.363281 0.882812 -3.796875 0.875 -5.640625 L 0.875 -8.015625 C 0.875 -9.921875 1.316406 -11.410156 2.203125 -12.484375 C 3.085938 -13.554688 4.316406 -14.09375 5.890625 -14.09375 C 7.441406 -14.09375 8.660156 -13.566406 9.546875 -12.515625 C 10.441406 -11.460938 10.894531 -9.984375 10.90625 -8.078125 Z M 8.09375 -8.03125 C 8.09375 -9.289062 7.910156 -10.222656 7.546875 -10.828125 C 7.191406 -11.441406 6.640625 -11.75 5.890625 -11.75 C 5.148438 -11.75 4.597656 -11.453125 4.234375 -10.859375 C 3.878906 -10.273438 3.695312 -9.378906 3.6875 -8.171875 L 3.6875 -5.703125 C 3.6875 -4.484375 3.867188 -3.585938 4.234375 -3.015625 C 4.597656 -2.441406 5.15625 -2.15625 5.90625 -2.15625 C 6.644531 -2.15625 7.191406 -2.4375 7.546875 -3 C 7.898438 -3.5625 8.082031 -4.429688 8.09375 -5.609375 Z M 8.09375 -8.03125 "/></g></g><g style="fill:rgb(65.098572%,65.098572%,65.098572%);fill-opacity:1;"><g transform="translate(209.319739, 251.855038)"><path style="stroke:none;" d="M 1.125 0 L 1.125 -13.90625 L 4.796875 -13.90625 C 6.421875 -13.90625 7.710938 -13.390625 8.671875 -12.359375 C 9.640625 -11.328125 10.132812 -9.914062 10.15625 -8.125 L 10.15625 -5.859375 C 10.15625 -4.035156 9.671875 -2.601562 8.703125 -1.5625 C 7.742188 -0.519531 6.414062 0 4.71875 0 Z M 3.921875 -11.5625 L 3.921875 -2.328125 L 4.765625 -2.328125 C 5.703125 -2.328125 6.359375 -2.570312 6.734375 -3.0625 C 7.117188 -3.5625 7.320312 -4.414062 7.34375 -5.625 L 7.34375 -8.046875 C 7.34375 -9.335938 7.160156 -10.238281 6.796875 -10.75 C 6.429688 -11.269531 5.816406 -11.539062 4.953125 -11.5625 Z M 3.921875 -11.5625 "/></g></g><g style="fill:rgb(65.098572%,65.098572%,65.098572%);fill-opacity:1;"><g transform="translate(225.242503, 251.855038)"><path style="stroke:none;" d=""/></g></g><g style="fill:rgb(65.098572%,65.098572%,65.098572%);fill-opacity:1;"><g transform="translate(234.623442, 251.855038)"><path style="stroke:none;" d="M 8.03125 -5.25 L 9.21875 -5.25 L 9.21875 -3.015625 L 8.03125 -3.015625 L 8.03125 0 L 5.328125 0 L 5.328125 -3.015625 L 0.71875 -3.015625 L 0.609375 -4.75 L 5.328125 -13.90625 L 8.03125 -13.90625 Z M 3.234375 -5.25 L 5.328125 -5.25 L 5.328125 -9.90625 L 5.265625 -9.796875 Z M 3.234375 -5.25 "/></g></g><g style="fill:rgb(65.098572%,65.098572%,65.098572%);fill-opacity:1;"><g transform="translate(249.390634, 251.855038)"><path style="stroke:none;" d="M 1.203125 -1.375 C 1.203125 -1.8125 1.347656 -2.164062 1.640625 -2.4375 C 1.929688 -2.71875 2.304688 -2.859375 2.765625 -2.859375 C 3.222656 -2.859375 3.597656 -2.71875 3.890625 -2.4375 C 4.191406 -2.164062 4.34375 -1.8125 4.34375 -1.375 C 4.34375 -0.925781 4.191406 -0.566406 3.890625 -0.296875 C 3.585938 -0.0234375 3.210938 0.109375 2.765625 0.109375 C 2.316406 0.109375 1.941406 -0.0234375 1.640625 -0.296875 C 1.347656 -0.578125 1.203125 -0.9375 1.203125 -1.375 Z M 1.203125 -1.375 "/></g></g><g style="fill:rgb(65.098572%,65.098572%,65.098572%);fill-opacity:1;"><g transform="translate(259.955784, 251.855038)"><path style="stroke:none;" d="M 6.859375 0 L 4.140625 0 L 4.140625 -10.625 L 1.5 -9.59375 L 1.5 -11.859375 L 6.578125 -13.921875 L 6.859375 -13.921875 Z M 6.859375 0 "/></g></g><g style="fill:rgb(65.098572%,65.098572%,65.098572%);fill-opacity:1;"><g transform="translate(274.722976, 251.855038)"><path style="stroke:none;" d="M 1.203125 -1.375 C 1.203125 -1.8125 1.347656 -2.164062 1.640625 -2.4375 C 1.929688 -2.71875 2.304688 -2.859375 2.765625 -2.859375 C 3.222656 -2.859375 3.597656 -2.71875 3.890625 -2.4375 C 4.191406 -2.164062 4.34375 -1.8125 4.34375 -1.375 C 4.34375 -0.925781 4.191406 -0.566406 3.890625 -0.296875 C 3.585938 -0.0234375 3.210938 0.109375 2.765625 0.109375 C 2.316406 0.109375 1.941406 -0.0234375 1.640625 -0.296875 C 1.347656 -0.578125 1.203125 -0.9375 1.203125 -1.375 Z M 1.203125 -1.375 "/></g></g><g style="fill:rgb(65.098572%,65.098572%,65.098572%);fill-opacity:1;"><g transform="translate(285.288126, 251.855038)"><path style="stroke:none;" d="M 8.984375 -5.75 C 8.984375 -3.820312 8.632812 -2.347656 7.9375 -1.328125 C 7.238281 -0.316406 6.242188 0.1875 4.953125 0.1875 C 3.671875 0.1875 2.679688 -0.304688 1.984375 -1.296875 C 1.296875 -2.285156 0.9375 -3.703125 0.90625 -5.546875 L 0.90625 -8.171875 C 0.90625 -10.085938 1.25 -11.550781 1.9375 -12.5625 C 2.632812 -13.582031 3.632812 -14.09375 4.9375 -14.09375 C 6.238281 -14.09375 7.234375 -13.585938 7.921875 -12.578125 C 8.617188 -11.578125 8.972656 -10.144531 8.984375 -8.28125 Z M 6.28125 -8.5625 C 6.28125 -9.664062 6.171875 -10.488281 5.953125 -11.03125 C 5.734375 -11.582031 5.394531 -11.859375 4.9375 -11.859375 C 4.082031 -11.859375 3.632812 -10.851562 3.59375 -8.84375 L 3.59375 -5.375 C 3.59375 -4.257812 3.703125 -3.425781 3.921875 -2.875 C 4.148438 -2.320312 4.492188 -2.046875 4.953125 -2.046875 C 5.390625 -2.046875 5.710938 -2.300781 5.921875 -2.8125 C 6.140625 -3.332031 6.257812 -4.117188 6.28125 -5.171875 Z M 6.28125 -8.5625 "/></g></g></g></svg>