<?xml version="1.0" encoding="UTF-8"?><svg xmlns="http://www.w3.org/2000/svg" xmlns:xlink="http://www.w3.org/1999/xlink" width="90pt" zoomAndPan="magnify" viewBox="0 0 90 30.750001" height="30.750001pt" preserveAspectRatio="xMidYMid meet" version="1.2"><defs><g/><clipPath xml:id="clip1" id="clip1"><path d="M 16 14 L 27.964844 14 L 27.964844 26.238281 L 16 26.238281 Z M 16 14 "/></clipPath><clipPath xml:id="clip2" id="clip2"><path d="M 3.414062 14 L 15 14 L 15 26.238281 L 3.414062 26.238281 Z M 3.414062 14 "/></clipPath><clipPath xml:id="clip3" id="clip3"><path d="M 16 1.6875 L 27.964844 1.6875 L 27.964844 14 L 16 14 Z M 16 1.6875 "/></clipPath><clipPath xml:id="clip4" id="clip4"><path d="M 33 2.464844 L 42 2.464844 L 42 12 L 33 12 Z M 33 2.464844 "/></clipPath><clipPath xml:id="clip5" id="clip5"><path d="M 42 2.464844 L 49 2.464844 L 49 12 L 42 12 Z M 42 2.464844 "/></clipPath><clipPath xml:id="clip6" id="clip6"><path d="M 49 2.464844 L 57 2.464844 L 57 12 L 49 12 Z M 49 2.464844 "/></clipPath></defs><g xml:id="surface1" id="surface1"><g clip-rule="nonzero" clip-path="url(#clip1)"><path style=" stroke:none;fill-rule:nonzero;fill:rgb(97.24884%,72.549438%,16.468811%);fill-opacity:1;" d="M 16.457031 14.730469 L 27.964844 14.730469 L 27.964844 26.238281 L 16.457031 26.238281 Z M 16.457031 14.730469 "/></g><g clip-rule="nonzero" clip-path="url(#clip2)"><path style=" stroke:none;fill-rule:nonzero;fill:rgb(100%,80.389404%,41.178894%);fill-opacity:1;" d="M 3.414062 14.730469 L 14.921875 14.730469 L 14.921875 26.238281 L 3.414062 26.238281 Z M 3.414062 14.730469 "/></g><g clip-rule="nonzero" clip-path="url(#clip3)"><path style=" stroke:none;fill-rule:nonzero;fill:rgb(88.62915%,63.139343%,12.548828%);fill-opacity:1;" d="M 16.457031 1.6875 L 27.964844 1.6875 L 27.964844 13.195312 L 16.457031 13.195312 Z M 16.457031 1.6875 "/></g><g clip-rule="nonzero" clip-path="url(#clip4)"><path style=" stroke:none;fill-rule:evenodd;fill:rgb(100%,100%,100%);fill-opacity:1;" d="M 41.421875 3.433594 C 41.355469 3.273438 41.265625 3.132812 41.152344 3 C 41.039062 2.878906 40.902344 2.777344 40.75 2.707031 C 40.59375 2.636719 40.429688 2.597656 40.257812 2.589844 L 33.691406 2.589844 C 33.628906 2.585938 33.574219 2.609375 33.53125 2.652344 C 33.488281 2.703125 33.472656 2.757812 33.476562 2.820312 L 33.476562 10.800781 C 33.476562 10.957031 33.542969 11.027344 33.683594 11.027344 L 35.183594 11.027344 C 35.324219 11.027344 35.390625 10.957031 35.390625 10.800781 L 35.390625 4.589844 L 36.613281 4.589844 L 36.613281 10.820312 C 36.605469 10.960938 36.671875 11.039062 36.816406 11.042969 L 38.195312 11.042969 C 38.253906 11.046875 38.300781 11.023438 38.335938 10.980469 C 38.371094 10.933594 38.390625 10.882812 38.390625 10.820312 L 38.390625 4.589844 L 39.609375 4.589844 L 39.609375 10.820312 C 39.609375 10.878906 39.625 10.933594 39.660156 10.980469 C 39.707031 11.023438 39.761719 11.035156 39.824219 11.023438 L 41.335938 11.023438 C 41.476562 11.019531 41.546875 10.945312 41.542969 10.800781 L 41.542969 3.96875 C 41.539062 3.785156 41.5 3.605469 41.421875 3.433594 Z M 41.421875 3.433594 "/></g><g clip-rule="nonzero" clip-path="url(#clip5)"><path style=" stroke:none;fill-rule:evenodd;fill:rgb(100%,100%,100%);fill-opacity:1;" d="M 48.289062 9.042969 C 48.25 8.996094 48.199219 8.976562 48.140625 8.980469 L 44.976562 8.980469 C 44.914062 8.984375 44.863281 8.964844 44.820312 8.921875 C 44.773438 8.878906 44.753906 8.828125 44.753906 8.765625 L 44.753906 2.828125 C 44.753906 2.679688 44.679688 2.597656 44.535156 2.597656 L 42.949219 2.597656 C 42.804688 2.597656 42.730469 2.679688 42.730469 2.828125 L 42.730469 10.800781 C 42.730469 10.957031 42.804688 11.035156 42.949219 11.035156 L 48.132812 11.035156 C 48.191406 11.035156 48.242188 11.015625 48.28125 10.96875 C 48.324219 10.921875 48.34375 10.867188 48.34375 10.800781 L 48.34375 9.210938 C 48.34375 9.148438 48.328125 9.09375 48.289062 9.042969 Z M 48.289062 9.042969 "/></g><g clip-rule="nonzero" clip-path="url(#clip6)"><path style=" stroke:none;fill-rule:evenodd;fill:rgb(100%,100%,100%);fill-opacity:1;" d="M 56.246094 2.664062 C 56.203125 2.617188 56.152344 2.59375 56.089844 2.589844 L 54.472656 2.589844 C 54.414062 2.589844 54.363281 2.609375 54.324219 2.65625 C 54.277344 2.703125 54.253906 2.757812 54.257812 2.820312 L 54.257812 5.523438 C 54.265625 5.664062 54.199219 5.742188 54.058594 5.753906 L 51.78125 5.753906 C 51.652344 5.769531 51.582031 5.710938 51.566406 5.585938 L 51.566406 2.828125 C 51.566406 2.679688 51.492188 2.597656 51.34375 2.597656 L 49.738281 2.597656 C 49.589844 2.597656 49.515625 2.679688 49.515625 2.828125 L 49.515625 10.824219 C 49.515625 10.976562 49.589844 11.054688 49.738281 11.054688 L 51.34375 11.054688 C 51.492188 11.054688 51.566406 10.976562 51.566406 10.824219 L 51.566406 7.984375 C 51.578125 7.945312 51.597656 7.910156 51.625 7.878906 C 51.667969 7.839844 51.722656 7.820312 51.78125 7.820312 L 54.042969 7.820312 C 54.105469 7.816406 54.15625 7.835938 54.199219 7.878906 C 54.238281 7.921875 54.257812 7.976562 54.257812 8.035156 L 54.257812 10.824219 C 54.257812 10.890625 54.277344 10.945312 54.324219 10.992188 C 54.363281 11.039062 54.417969 11.058594 54.476562 11.054688 L 56.089844 11.054688 C 56.152344 11.058594 56.203125 11.039062 56.246094 10.992188 C 56.292969 10.945312 56.3125 10.890625 56.308594 10.824219 L 56.308594 2.828125 C 56.308594 2.765625 56.289062 2.710938 56.246094 2.664062 Z M 56.246094 2.664062 "/></g><g style="fill:rgb(100%,100%,100%);fill-opacity:1;"><g transform="translate(32.345195, 26.21577)"><path style="stroke:none;" d="M 0.796875 -10.890625 L 4.765625 -10.890625 C 5.878906 -10.890625 6.773438 -10.601562 7.453125 -10.03125 C 8.140625 -9.457031 8.484375 -8.625 8.484375 -7.53125 C 8.484375 -6.445312 8.132812 -5.59375 7.4375 -4.96875 C 6.75 -4.351562 5.859375 -4.046875 4.765625 -4.046875 L 3.28125 -4.046875 L 3.28125 0 L 0.796875 0 Z M 3.28125 -6.015625 L 3.96875 -6.015625 C 4.53125 -6.015625 4.988281 -6.125 5.34375 -6.34375 C 5.695312 -6.570312 5.875 -6.941406 5.875 -7.453125 C 5.875 -7.972656 5.695312 -8.34375 5.34375 -8.5625 C 4.988281 -8.789062 4.53125 -8.90625 3.96875 -8.90625 L 3.28125 -8.90625 Z M 3.28125 -6.015625 "/></g></g><g style="fill:rgb(100%,100%,100%);fill-opacity:1;"><g transform="translate(41.134284, 26.21577)"><path style="stroke:none;" d="M 0.796875 0 L 0.796875 -6.765625 L 3.125 -6.765625 L 3.125 -5.796875 L 3.15625 -5.796875 C 3.175781 -5.828125 3.203125 -5.867188 3.234375 -5.921875 C 3.273438 -5.972656 3.363281 -6.066406 3.5 -6.203125 C 3.632812 -6.335938 3.773438 -6.457031 3.921875 -6.5625 C 4.066406 -6.664062 4.257812 -6.757812 4.5 -6.84375 C 4.738281 -6.925781 4.984375 -6.96875 5.234375 -6.96875 C 5.484375 -6.96875 5.726562 -6.929688 5.96875 -6.859375 C 6.21875 -6.796875 6.398438 -6.726562 6.515625 -6.65625 L 6.703125 -6.546875 L 5.734375 -4.5625 C 5.441406 -4.8125 5.035156 -4.9375 4.515625 -4.9375 C 4.234375 -4.9375 3.988281 -4.875 3.78125 -4.75 C 3.582031 -4.625 3.441406 -4.472656 3.359375 -4.296875 C 3.273438 -4.128906 3.210938 -3.984375 3.171875 -3.859375 C 3.140625 -3.734375 3.125 -3.632812 3.125 -3.5625 L 3.125 0 Z M 0.796875 0 "/></g></g><g style="fill:rgb(100%,100%,100%);fill-opacity:1;"><g transform="translate(47.706307, 26.21577)"><path style="stroke:none;" d="M 7.640625 -3.0625 L 2.734375 -3.0625 C 2.734375 -2.582031 2.882812 -2.226562 3.1875 -2 C 3.5 -1.769531 3.835938 -1.65625 4.203125 -1.65625 C 4.578125 -1.65625 4.875 -1.707031 5.09375 -1.8125 C 5.3125 -1.914062 5.5625 -2.117188 5.84375 -2.421875 L 7.53125 -1.578125 C 6.832031 -0.390625 5.664062 0.203125 4.03125 0.203125 C 3.007812 0.203125 2.128906 -0.144531 1.390625 -0.84375 C 0.660156 -1.550781 0.296875 -2.394531 0.296875 -3.375 C 0.296875 -4.363281 0.660156 -5.207031 1.390625 -5.90625 C 2.128906 -6.613281 3.007812 -6.96875 4.03125 -6.96875 C 5.101562 -6.96875 5.972656 -6.65625 6.640625 -6.03125 C 7.316406 -5.414062 7.65625 -4.53125 7.65625 -3.375 C 7.65625 -3.21875 7.648438 -3.113281 7.640625 -3.0625 Z M 2.796875 -4.359375 L 5.375 -4.359375 C 5.320312 -4.710938 5.179688 -4.984375 4.953125 -5.171875 C 4.734375 -5.359375 4.445312 -5.453125 4.09375 -5.453125 C 3.707031 -5.453125 3.398438 -5.347656 3.171875 -5.140625 C 2.941406 -4.941406 2.816406 -4.679688 2.796875 -4.359375 Z M 2.796875 -4.359375 "/></g></g><g style="fill:rgb(100%,100%,100%);fill-opacity:1;"><g transform="translate(55.663995, 26.21577)"><path style="stroke:none;" d="M 7.765625 -5.921875 C 8.398438 -5.234375 8.71875 -4.390625 8.71875 -3.390625 C 8.71875 -2.390625 8.398438 -1.539062 7.765625 -0.84375 C 7.128906 -0.144531 6.320312 0.203125 5.34375 0.203125 C 4.445312 0.203125 3.707031 -0.078125 3.125 -0.640625 L 3.125 3.4375 L 0.796875 3.4375 L 0.796875 -6.765625 L 3.109375 -6.765625 L 3.109375 -6 L 3.125 -6 C 3.707031 -6.644531 4.445312 -6.96875 5.34375 -6.96875 C 6.320312 -6.96875 7.128906 -6.617188 7.765625 -5.921875 Z M 5.78125 -2.234375 C 6.082031 -2.535156 6.234375 -2.921875 6.234375 -3.390625 C 6.234375 -3.859375 6.085938 -4.238281 5.796875 -4.53125 C 5.503906 -4.832031 5.117188 -4.984375 4.640625 -4.984375 C 4.191406 -4.984375 3.816406 -4.832031 3.515625 -4.53125 C 3.222656 -4.226562 3.078125 -3.847656 3.078125 -3.390625 C 3.078125 -2.921875 3.226562 -2.535156 3.53125 -2.234375 C 3.832031 -1.941406 4.203125 -1.796875 4.640625 -1.796875 C 5.097656 -1.796875 5.476562 -1.941406 5.78125 -2.234375 Z M 5.78125 -2.234375 "/></g></g></g></svg>